<svg width="24" height="24" viewBox="0 0 24 24" fill="none" xmlns="http://www.w3.org/2000/svg">
<path d="M12 21.6394C6.5 21.6394 2 17.2132 2 11.8034C2 6.39352 6.5 1.96729 12 1.96729C17.5 1.96729 22 6.39352 22 11.8034C22 17.2132 17.5 21.6394 12 21.6394ZM12 3.9345C7.6 3.9345 4 7.47548 4 11.8034C4 16.1312 7.6 19.6722 12 19.6722C16.4 19.6722 20 16.1312 20 11.8034C20 7.47548 16.4 3.9345 12 3.9345Z" fill="white"/>
<path d="M10.9 15.3444C10.6 15.3444 10.4 15.2461 10.2 15.0494L7.3 12.1969C6.9 11.8035 6.9 11.2133 7.3 10.8199C7.7 10.4264 8.3 10.4264 8.7 10.8199L10.9 12.9838L15.3 8.65592C15.7 8.26248 16.3 8.26248 16.7 8.65592C17.1 9.04936 17.1 9.63953 16.7 10.033L11.6 15.0494C11.4 15.1477 11.2 15.2461 10.9 15.3444Z" fill="white"/>
</svg>
