<svg width="73" height="70" viewBox="0 0 73 70" fill="none" xmlns="http://www.w3.org/2000/svg">
<g filter="url(#filter0_d)">
<rect x="10" y="8" width="53" height="50" rx="12" fill="#F6FAFF"/>
</g>
<rect opacity="0.01" x="26" y="22" width="22" height="22" fill="black"/>
<path d="M39.7497 36.6667H34.2497C33.7434 36.6667 33.333 37.0771 33.333 37.5833C33.333 38.0896 33.7434 38.5 34.2497 38.5H39.7497C40.2559 38.5 40.6663 38.0896 40.6663 37.5833C40.6663 37.0771 40.2559 36.6667 39.7497 36.6667Z" fill="#0668E3"/>
<path d="M34.2497 34.8333H36.9997C37.5059 34.8333 37.9163 34.4229 37.9163 33.9167C37.9163 33.4104 37.5059 33 36.9997 33H34.2497C33.7434 33 33.333 33.4104 33.333 33.9167C33.333 34.4229 33.7434 34.8333 34.2497 34.8333Z" fill="#0668E3"/>
<path fill-rule="evenodd" clip-rule="evenodd" d="M44.0953 29.6358L39.1087 24.1358C38.9354 23.9438 38.689 23.8339 38.4303 23.8333H32.0137C31.3986 23.826 30.8058 24.0633 30.3657 24.4931C29.9256 24.9229 29.6742 25.5099 29.667 26.125V39.875C29.6742 40.4901 29.9256 41.0771 30.3657 41.5069C30.8058 41.9367 31.3986 42.174 32.0137 42.1667H41.987C42.6021 42.174 43.1949 41.9367 43.635 41.5069C44.0751 41.0771 44.3264 40.4901 44.3337 39.875V30.25C44.3331 30.0228 44.2481 29.8039 44.0953 29.6358ZM38.8337 26.5833L41.3453 29.3333H39.512C39.3181 29.3216 39.137 29.2325 39.0094 29.086C38.8819 28.9395 38.8186 28.7478 38.8337 28.5542V26.5833ZM32.0137 40.3333H41.987C42.1159 40.3408 42.2425 40.2967 42.3388 40.2107C42.4351 40.1247 42.4932 40.0039 42.5003 39.875V31.1667H39.4845C38.0791 31.1267 36.9695 29.9598 37.0003 28.5542V25.6667H32.0137C31.8848 25.6592 31.7582 25.7033 31.6619 25.7893C31.5655 25.8753 31.5074 25.9961 31.5003 26.125V39.875C31.5074 40.0039 31.5655 40.1247 31.6619 40.2107C31.7582 40.2967 31.8848 40.3408 32.0137 40.3333Z" fill="#0668E3"/>
<defs>
<filter id="filter0_d" x="0" y="0" width="73" height="70" filterUnits="userSpaceOnUse" color-interpolation-filters="sRGB">
<feFlood flood-opacity="0" result="BackgroundImageFix"/>
<feColorMatrix in="SourceAlpha" type="matrix" values="0 0 0 0 0 0 0 0 0 0 0 0 0 0 0 0 0 0 127 0"/>
<feOffset dy="2"/>
<feGaussianBlur stdDeviation="5"/>
<feColorMatrix type="matrix" values="0 0 0 0 0.0235294 0 0 0 0 0.407843 0 0 0 0 0.890196 0 0 0 0.0467931 0"/>
<feBlend mode="normal" in2="BackgroundImageFix" result="effect1_dropShadow"/>
<feBlend mode="normal" in="SourceGraphic" in2="effect1_dropShadow" result="shape"/>
</filter>
</defs>
</svg>
