<svg width="73" height="70" viewBox="0 0 73 70" fill="none" xmlns="http://www.w3.org/2000/svg">
<g filter="url(#filter0_d)">
<rect x="10" y="8" width="53" height="50" rx="12" fill="#F6FAFF"/>
</g>
<rect opacity="0.01" x="49" y="45" width="24" height="24" transform="rotate(180 49 45)" fill="black"/>
<path d="M43.71 35.29C43.3179 34.8979 42.6821 34.8979 42.29 35.29C41.8979 35.6821 41.8979 36.3179 42.29 36.71L42.58 37H41C38.7909 37 37 35.2091 37 33C37 30.7909 38.7909 29 41 29H42.59L42.29 29.29C42.1007 29.4778 41.9942 29.7334 41.9942 30C41.9942 30.2666 42.1007 30.5222 42.29 30.71C42.4787 30.8972 42.7342 31.0015 43 31C43.2658 31.0015 43.5213 30.8972 43.71 30.71L45.71 28.71C45.8972 28.5213 46.0015 28.2658 46 28C46.0015 27.7342 45.8972 27.4787 45.71 27.29L43.71 25.29C43.3179 24.8979 42.6821 24.8979 42.29 25.29C41.8979 25.6821 41.8979 26.3179 42.29 26.71L42.58 27H41C38.9877 27.0015 37.1101 28.0116 36 29.69C34.8899 28.0116 33.0123 27.0015 31 27H29C28.4477 27 28 27.4477 28 28C28 28.5523 28.4477 29 29 29H31C33.2091 29 35 30.7909 35 33C35 35.2091 33.2091 37 31 37H29C28.4477 37 28 37.4477 28 38C28 38.5523 28.4477 39 29 39H31C33.0123 38.9985 34.8899 37.9884 36 36.31C37.1101 37.9884 38.9877 38.9985 41 39H42.59L42.29 39.29C42.1007 39.4778 41.9942 39.7334 41.9942 40C41.9942 40.2666 42.1007 40.5222 42.29 40.71C42.4787 40.8972 42.7342 41.0015 43 41C43.2658 41.0015 43.5213 40.8972 43.71 40.71C43.71 40.71 44.6203 39.7997 45.0755 39.3445C45.287 39.133 45.71 38.71 45.71 38.71C45.8972 38.5213 46.0015 38.2658 46 38C46.0015 37.7342 45.8972 37.4787 45.71 37.29L43.71 35.29Z" fill="#0668E3"/>
<defs>
<filter id="filter0_d" x="0" y="0" width="73" height="70" filterUnits="userSpaceOnUse" color-interpolation-filters="sRGB">
<feFlood flood-opacity="0" result="BackgroundImageFix"/>
<feColorMatrix in="SourceAlpha" type="matrix" values="0 0 0 0 0 0 0 0 0 0 0 0 0 0 0 0 0 0 127 0"/>
<feOffset dy="2"/>
<feGaussianBlur stdDeviation="5"/>
<feColorMatrix type="matrix" values="0 0 0 0 0.0235294 0 0 0 0 0.407843 0 0 0 0 0.890196 0 0 0 0.0467931 0"/>
<feBlend mode="normal" in2="BackgroundImageFix" result="effect1_dropShadow"/>
<feBlend mode="normal" in="SourceGraphic" in2="effect1_dropShadow" result="shape"/>
</filter>
</defs>
</svg>
